Coordinates
version=1
nRows=94
nColumns=11
inDegrees=no

Units are S.I. units (second, meters, Newtons, ...)
If the header above contains a line with 'inDegrees', this indicates whether rotational values are in degrees (yes) or radians (no).

endheader
time	pelvis_tilt	pelvis_tx	pelvis_ty	hip_flexion_r	knee_angle_r	ankle_angle_r	hip_flexion_l	knee_angle_l	ankle_angle_l	lumbar_extension
316.56	-0.0338327	0.0520296	0.996202	0.184756	-1.00912	-0.441025	0.336773	-0.271764	0.244418	0
316.57	-0.0314872	0.051486	0.998682	0.21625	-1.04256	-0.394462	0.308761	-0.250497	0.246826	0
316.58	-0.0291382	0.0502448	1.00095	0.248352	-1.07116	-0.347536	0.284726	-0.236065	0.248585	0
316.59	-0.0257857	0.0495021	1.00305	0.277567	-1.09421	-0.296204	0.256102	-0.215812	0.252938	0
316.6	-0.0221947	0.0487839	1.00486	0.305944	-1.11241	-0.248457	0.226872	-0.195518	0.256708	0
316.61	-0.0178866	0.0483808	1.00679	0.331921	-1.1244	-0.205859	0.198916	-0.179058	0.258975	0
316.62	-0.014312	0.0476551	1.00858	0.35844	-1.13263	-0.169298	0.172431	-0.162374	0.260359	0
316.63	-0.00889662	0.0473967	1.01013	0.380938	-1.13637	-0.137053	0.141585	-0.142553	0.262626	0
316.64	-0.00491393	0.0463526	1.01104	0.406863	-1.13814	-0.112709	0.118069	-0.132142	0.267954	0
316.65	-0.00730401	0.0440932	1.01113	0.441728	-1.13726	-0.0873767	0.0991481	-0.112579	0.269601	0
316.66	-0.00680579	0.0421849	1.0114	0.47067	-1.13098	-0.0705011	0.0805514	-0.102054	0.2717	0
316.67	-0.00268139	0.041503	1.01197	0.490791	-1.11776	-0.0505344	0.0540712	-0.0865949	0.27273	0
316.68	-0.014413	0.0371087	1.01047	0.536185	-1.10951	-0.0273582	0.0516867	-0.0754006	0.272269	0
316.69	-0.0140282	0.0350487	1.01007	0.559191	-1.09013	-0.00502897	0.0318413	-0.0629314	0.275199	0
316.7	-0.0143226	0.0330566	1.00924	0.581859	-1.06674	0.00948642	0.0151406	-0.0545722	0.2799	0
316.71	-0.0127825	0.0315248	1.00819	0.599382	-1.03973	0.0176792	-0.00553266	-0.043916	0.287217	0
316.72	-0.0125133	0.0299866	1.00655	0.618287	-1.01109	0.0304953	-0.0241393	-0.0331194	0.292601	0
316.73	-0.0126149	0.0283562	1.00483	0.634798	-0.976889	0.0460996	-0.0414243	-0.0243205	0.298482	0
316.74	-0.0118669	0.0271158	1.0032	0.646166	-0.936721	0.0639191	-0.059777	-0.0160662	0.303074	0
316.75	0.00499136	0.0292891	1.00289	0.631046	-0.889432	0.0758291	-0.100479	-0.00701364	0.315516	0
316.76	0.00666426	0.028563	1.00076	0.639437	-0.845644	0.0884418	-0.121377	0.00373823	0.324086	0
316.77	0.00742315	0.027543	0.998449	0.647671	-0.79914	0.0974004	-0.140716	0.0138478	0.329878	0
316.78	0.00683643	0.0263599	0.995561	0.656377	-0.751592	0.106218	-0.158787	0.024013	0.334438	0
316.79	0.00608073	0.0252804	0.992576	0.66244	-0.700149	0.114931	-0.174591	0.0296988	0.340962	0
316.8	0.00594538	0.0246669	0.989712	0.6643	-0.645597	0.124019	-0.190984	0.0344522	0.348403	0
316.81	0.00584064	0.024123	0.986774	0.663365	-0.58922	0.133383	-0.207446	0.0396423	0.353457	0
316.82	0.00524367	0.0236312	0.983729	0.660079	-0.531376	0.143245	-0.223165	0.0443285	0.359379	0
316.83	-0.0120145	0.0202482	0.978943	0.679676	-0.48058	0.15091	-0.213611	0.0423049	0.367435	0
316.84	-0.0134638	0.0195111	0.975699	0.676866	-0.432599	0.159546	-0.224194	0.0392375	0.378617	0
316.85	-0.0156033	0.0191519	0.972427	0.675445	-0.393596	0.166205	-0.232215	0.0338909	0.387337	0
316.86	-0.0158607	0.019092	0.969529	0.67144	-0.364507	0.173691	-0.240905	0.0249368	0.39557	0
316.87	0.00138014	0.0214264	0.968375	0.644314	-0.34494	0.185946	-0.273956	0.017894	0.407639	0
316.88	-0.0157686	0.0193631	0.964321	0.666303	-0.342891	0.195093	-0.260083	0.00813036	0.40655	0
316.89	-0.00139305	0.0223358	0.963475	0.645085	-0.347755	0.209158	-0.289997	0.00143536	0.411865	0
316.9	-0.000531326	0.0234361	0.961802	0.643184	-0.367033	0.220033	-0.300293	-0.0091491	0.411306	0
316.91	-0.00245399	0.023622	0.960237	0.645478	-0.394813	0.223491	-0.301112	-0.0300306	0.409728	0
316.92	-0.0189665	0.0215704	0.957798	0.667554	-0.427758	0.223134	-0.284313	-0.0482678	0.398076	0
316.93	-0.0189117	0.0225568	0.957243	0.663944	-0.450686	0.225553	-0.289292	-0.0668609	0.390453	0
316.94	-0.019207	0.0237043	0.957089	0.659915	-0.468271	0.22372	-0.292719	-0.0870528	0.378395	0
316.95	-0.0199091	0.0249381	0.957213	0.655052	-0.481886	0.214517	-0.294823	-0.108798	0.361424	0
316.96	-0.00202426	0.0290183	0.959318	0.622786	-0.489159	0.203317	-0.319585	-0.131483	0.347653	0
316.97	-0.0048656	0.0303286	0.960103	0.619314	-0.500733	0.192297	-0.315524	-0.15706	0.322948	0
316.98	-0.0162751	0.0299402	0.960574	0.627656	-0.514858	0.186019	-0.296758	-0.190219	0.296614	0
316.99	-0.015252	0.0318003	0.962129	0.615693	-0.522114	0.188956	-0.290214	-0.228212	0.270748	0
317	-0.0138894	0.0335677	0.964101	0.601304	-0.527902	0.200879	-0.282124	-0.267378	0.229883	0
317.01	-0.0126276	0.0348556	0.966774	0.58276	-0.528634	0.2146	-0.271265	-0.308388	0.181072	0
317.02	0.001851	0.039335	0.970434	0.544854	-0.522586	0.226432	-0.272036	-0.351885	0.128705	0
317.03	0.00276545	0.0409475	0.97332	0.522154	-0.513904	0.237123	-0.249358	-0.404536	0.06389	0
317.04	0.00407499	0.0423284	0.976362	0.496928	-0.501475	0.249817	-0.221031	-0.464258	0.00210246	0
317.05	0.00408024	0.0433351	0.979212	0.472528	-0.487321	0.262738	-0.184594	-0.532442	-0.0551267	0
317.06	0.0045164	0.0441397	0.982046	0.449187	-0.475062	0.271756	-0.146067	-0.602562	-0.112314	0
317.07	0.00420014	0.0446211	0.984941	0.42656	-0.462951	0.275743	-0.104741	-0.671098	-0.1856	0
317.08	0.0296326	0.0485479	0.988742	0.374368	-0.457328	0.283017	-0.0941771	-0.740847	-0.249255	0
317.09	0.0258757	0.0477018	0.990567	0.355768	-0.441925	0.287905	-0.0478157	-0.801315	-0.320169	0
317.1	-0.0108819	0.0414445	0.990322	0.377181	-0.41899	0.29263	0.0408629	-0.857684	-0.374281	0
317.11	-0.00986316	0.0413026	0.992807	0.351662	-0.401811	0.298162	0.07827	-0.908768	-0.393918	0
317.12	-0.000150807	0.042944	0.996043	0.313912	-0.382771	0.30562	0.100983	-0.951152	-0.382595	0
317.13	-0.000321113	0.0422974	0.998234	0.28898	-0.361359	0.312038	0.138373	-0.99283	-0.356097	0
317.14	0.0228117	0.0457709	1.00166	0.235641	-0.346029	0.313927	0.142716	-1.02798	-0.318775	0
317.15	-0.00947861	0.0394339	1.00149	0.247617	-0.315087	0.312348	0.223584	-1.06242	-0.27987	0
317.16	0.00138295	0.0407274	1.00441	0.208835	-0.296736	0.316269	0.238763	-1.07784	-0.24016	0
317.17	0.000119098	0.0393204	1.0059	0.186601	-0.277079	0.316467	0.273015	-1.09506	-0.201351	0
317.18	-0.000192308	0.0381918	1.00727	0.162041	-0.255964	0.315235	0.304019	-1.1057	-0.163458	0
317.19	-0.00120432	0.0368026	1.00826	0.14059	-0.238957	0.313553	0.335606	-1.11225	-0.126213	0
317.2	-0.00276476	0.0355615	1.00904	0.120133	-0.222652	0.312632	0.366377	-1.11316	-0.092097	0
317.21	-0.00445751	0.0339879	1.00953	0.0999091	-0.20495	0.313885	0.397212	-1.11031	-0.0615523	0
317.22	-0.0070757	0.0319317	1.00964	0.0814006	-0.188564	0.314824	0.428572	-1.1037	-0.0365455	0
317.23	-0.020385	0.0279633	1.00836	0.0781082	-0.17214	0.311836	0.475456	-1.09648	-0.0129372	0
317.24	-0.0222863	0.0260589	1.00798	0.060384	-0.157894	0.310839	0.501472	-1.07873	0.0117602	0
317.25	-0.00753236	0.0275018	1.00908	0.0184535	-0.141946	0.315471	0.498275	-1.04976	0.0365663	0
317.26	-0.0244148	0.0231004	1.00651	0.0218783	-0.129655	0.314504	0.546283	-1.0305	0.0547769	0
317.27	-0.0280931	0.0210599	1.0048	0.00849961	-0.121254	0.323222	0.571315	-1.00229	0.0723979	0
317.28	-0.0304952	0.0194631	1.00312	-0.00631736	-0.113709	0.328739	0.59183	-0.967765	0.0893146	0
317.29	-0.0181652	0.0207762	1.00249	-0.0416012	-0.10465	0.334419	0.587378	-0.925067	0.106182	0
317.3	-0.0192081	0.0194541	1.00033	-0.0587874	-0.0944966	0.340989	0.602562	-0.884365	0.118458	0
317.31	-0.0219627	0.0177857	0.997826	-0.0720304	-0.0872542	0.351567	0.619878	-0.843012	0.124526	0
317.32	-0.0253055	0.0160679	0.995107	-0.0837653	-0.0816931	0.357663	0.636378	-0.798603	0.127526	0
317.33	-0.0282862	0.0145858	0.992196	-0.0962092	-0.0758341	0.364009	0.646606	-0.745867	0.133136	0
317.34	-0.0297711	0.0137699	0.989492	-0.111212	-0.0696457	0.369017	0.652803	-0.691487	0.142766	0
317.35	-0.0320675	0.0127544	0.986387	-0.124802	-0.0641836	0.373388	0.658422	-0.635201	0.15006	0
317.36	-0.0368976	0.0112389	0.982769	-0.13271	-0.0631433	0.379153	0.665641	-0.578277	0.152913	0
317.37	-0.0556229	0.00739499	0.977852	-0.121728	-0.0634339	0.3806	0.690136	-0.524104	0.154681	0
317.38	-0.0577174	0.00677976	0.97445	-0.133143	-0.0637199	0.389015	0.6889	-0.468356	0.159696	0
317.39	-0.0606397	0.00600242	0.970971	-0.141951	-0.0673144	0.401073	0.687634	-0.415735	0.162895	0
317.4	-0.064611	0.00558818	0.967442	-0.147813	-0.0737705	0.410174	0.687727	-0.370415	0.16963	0
317.41	-0.051892	0.0079626	0.965533	-0.176682	-0.0785111	0.420381	0.666271	-0.334386	0.181291	0
317.42	-0.0654986	0.00551428	0.961475	-0.167848	-0.0902463	0.421741	0.682184	-0.314951	0.189645	0
317.43	-0.0593825	0.00654942	0.959195	-0.184998	-0.100048	0.426984	0.672773	-0.304074	0.201951	0
317.44	-0.0574601	0.00726373	0.956859	-0.194154	-0.114449	0.430219	0.670581	-0.3066	0.21059	0
317.45	-0.0703483	0.0065806	0.953828	-0.182443	-0.132207	0.424812	0.688916	-0.323723	0.206279	0
317.46	-0.0732817	0.00724384	0.952016	-0.183436	-0.151674	0.418507	0.692726	-0.34866	0.197772	0
317.47	-0.0591629	0.0103977	0.951796	-0.205211	-0.172882	0.416691	0.672506	-0.373681	0.196223	0
317.48	-0.0747	0.00912457	0.949496	-0.182594	-0.203418	0.401989	0.692008	-0.39917	0.188875	0
317.49	-0.0619291	0.0123224	0.950268	-0.198253	-0.232089	0.390506	0.669276	-0.410891	0.173831	0
